# xmcd
#
# Track frame offsets: 
#        183
#        21890
#        41345
#        67883
#        86250
#        104080
#        122098
#        140718
#        159983
#        176610
#        198473
#        211995
#        230775
#        244418
#        263978
#        283393
#        300238
#        318343
#        335723
#
# Disc length: 4735 seconds
#
# Revision: 8
# Processed by: cddbd v1.5.2PL0 Copyright (c) Steve Scherf et al.
# Submitted via: ExactAudioCopy v1.0b3
#
DISCID=1b127d13
DTITLE=Various Artists / Sound of cinema - Listen to the movies
DYEAR=1993
DGENRE=Soundtracks
TTITLE0=Bill Medley; Jennifer Warnes / (I’ve had) The time of my life 
TTITLE0=[Dirty dancing]
TTITLE1=Annie Lennox / Love song for a vampire [Bram Stoker's Dracula]
TTITLE2=Prince and the Revolution / When doves cry [Purple rain]
TTITLE3=Ray Parker Jr. / Ghostbusters [Ghostbusters I]
TTITLE4=Joe Cocker; Jennifer Warnes / Up where we belong [Ein Offizier
TTITLE4= und Gentleman]
TTITLE5=Lady Soul / If my sister's in trouble [Sister act]
TTITLE6=Billy Ocean / When the going gets tough, the tough get going [
TTITLE6=Auf der Jagd nach dem Juwel vom Nil]
TTITLE7=Glenn Frey / Part of me, part of you [Thelma & Louise]
TTITLE8=Klaus Doldinger / Das Boot [Das Boot]
TTITLE9=The S.O.U.L. S.Y.S.T.E.M. / It's gonna be a lovely day [Bodygu
TTITLE9=ard] [pop radio edit]
TTITLE10=Marvin Berry and the Starlighters / Earth angel (Will you be 
TTITLE10=mine?) [Zurück in die Zukunft I]
TTITLE11=Dan Hartman / I can dream about you [Straßen in Flammen]
TTITLE12=Harold Faltermeyer / Axel F. [Beverly Hills cop I]
TTITLE13=Peter Cetera / Glory of love [Karate kid II]
TTITLE14=David A. Stewart; Candy Dulfer / Lily was here [Lily was here
TTITLE14=]
TTITLE15=Bette Midler / The rose [The rose]
TTITLE16=The Commitments / Mustang Sally [The Commitments]
TTITLE17=Christopher Cross / Arthur’s theme (Best that you can do) [Ar
TTITLE17=thur]
TTITLE18=John Williams / E. T. phone home [E.T.]
EXTD=
EXTT0=Dirty Dancing
EXTT1=Bram Stoker's Dracula
EXTT2=Purple Rain
EXTT3=Ghostbusters I
EXTT4=Ein Offizier und Gentleman
EXTT5=Sister Act
EXTT6=Das Juwel vom Nil
EXTT7=Thelma & Louise
EXTT8=Das Boot
EXTT9=Bodyguard
EXTT10=Zurück in die Zukunft I
EXTT11=Strassen in Flammen
EXTT12=Beverly Hills Cop I
EXTT13=Karate Kid
EXTT14=Lily was here
EXTT15=The Rose
EXTT16=Commitments
EXTT17=Arthur
EXTT18=E.T.
PLAYORDER=
